Celine (Juliet Berto), a magician, and Julie (Dominique Labourier), a Librarian, meet in Montmartre and wind up sharing the same flat, bed, finance, clothes, identity and imagination. Soon, thanks to a magic sweet, they find themselves spectators, then participants, in a Henry James-inspired ΓÇÿfilm-within-the-filmΓÇÖ ΓÇô a melodrama unfolding in a mysterious suburban house with the ΓÇÿPhantom Ladies Over ParisΓÇÖ (Bulle Ogier and Marie-France Pisier), a sinister man (Barbet Schroeder) and his child. The atmosphere, however, is more Lewis Carroll, with Juliet Berto and Dominique Labourier as twin Alices. The four main actresses improvised their own dialogue in collaboration with Rivette and scriptwriter Eduardo de Gregorio.

___________________________________________

Subtitles: English, Portuguese, Spanish, Turkish, Hungarian

___________________________________________


General
Complete name                    : Celine.and.Julie.Go.Boating.DVDRip.x264.mkv
Format                           : Matroska
File size                        : 2.64 GiB
Duration                         : 3h 5mn
Overall bit rate                 : 2 039 Kbps
Encoded date                     : UTC 2013-05-01 04:14:54
Writing application              : mkvmerge v4.9.1 ('Ich will') built on Jul 11 2011 23:53:15
Writing library                  : libebml v1.2.1 + libmatroska v1.1.1

Video
ID                               : 2
Format                           : AVC
Format/Info                      : Advanced Video Codec
Format profile                   : High@L3.1
Format settings, CABAC           : Yes
Format settings, ReFrames        : 11 frames
Muxing mode                      : Header stripping
Codec ID                         : V_MPEG4/ISO/AVC
Duration                         : 3h 5mn
Bit rate                         : 1 806 Kbps
Width                            : 702 pixels
Height                           : 574 pixels
Display aspect ratio             : 4:3
Original display aspect ratio    : 4:3
Frame rate                       : 25.000 fps
Color space                      : YUV
Chroma subsampling               : 4:2:0
Bit depth                        : 8 bits
Scan type                        : Progressive
Bits/(Pixel*Frame)               : 0.179
Stream size                      : 2.34 GiB (89%)
Language                         : English
Color primaries                  : BT.601-6 525, BT.1358 525, BT.1700 NTSC, SMPTE 170M
Transfer characteristics         : BT.709-5, BT.1361
Matrix coefficients              : BT.601-6 525, BT.1358 525, BT.1700 NTSC, SMPTE 170M

Audio
ID                               : 3
Format                           : AC-3
Format/Info                      : Audio Coding 3
Mode extension                   : CM (complete main)
Muxing mode                      : Header stripping
Codec ID                         : A_AC3
Duration                         : 3h 5mn
Bit rate mode                    : Constant
Bit rate                         : 192 Kbps
Channel(s)                       : 2 channels
Channel positions                : Front: L R
Sampling rate                    : 48.0 KHz
Bit depth                        : 16 bits
Compression mode                 : Lossy
Stream size                      : 255 MiB (9%)
Language                         : French

Text #1
ID                               : 1
Format                           : UTF-8
Codec ID                         : S_TEXT/UTF8
Codec ID/Info                    : UTF-8 Plain Text

Text #2
ID                               : 4
Format                           : VobSub
Muxing mode                      : zlib
Codec ID                         : S_VOBSUB
Codec ID/Info                    : The same subtitle format used on DVDs
Language                         : English

Text #3
ID                               : 5
Format                           : UTF-8
Codec ID                         : S_TEXT/UTF8
Codec ID/Info                    : UTF-8 Plain Text

Text #4
ID                               : 6
Format                           : UTF-8
Codec ID                         : S_TEXT/UTF8
Codec ID/Info                    : UTF-8 Plain Text

Text #5
ID                               : 7
Format                           : UTF-8
Codec ID                         : S_TEXT/UTF8
Codec ID/Info                    : UTF-8 Plain Text